<?xml version="1.0" encoding="utf-8"?>
<!-- Generator: Adobe Illustrator 16.2.1, SVG Export Plug-In . SVG Version: 6.00 Build 0)  -->
<!DOCTYPE svg PUBLIC "-//W3C//DTD SVG 1.1//EN" "http://www.w3.org/Graphics/SVG/1.1/DTD/svg11.dtd">
<svg version="1.1" id="Layer_1" xmlns="http://www.w3.org/2000/svg" xmlns:xlink="http://www.w3.org/1999/xlink" x="0px" y="0px"
	 width="1451.786px" height="657.144px" viewBox="0 0 1451.786 657.144" enable-background="new 0 0 1451.786 657.144"
	 xml:space="preserve">
<path display="none" fill="none" stroke="#000000" d="M104.44-294.215"/>
<rect x="-383.072" y="-712.071" display="none" width="2237.5" height="2203.573"/>
<g>
	<path fill="#FFFFFF" d="M139.666,92.566H57.449v137.239h82.216v30.266H57.449v167.505H30.201V62.301h109.465V92.566z"/>
	<path fill="#FFFFFF" d="M211.542,62.301l40.873,365.275h-30.067l-8.457-91.319h-31.947l-8.926,91.319h-30.068l40.873-365.275
		H211.542z M211.073,305.992l-13.155-138.805l-13.154,138.805H211.073z"/>
	<path fill="#FFFFFF" d="M290.933,62.301v335.01h82.216v30.266H263.685V62.301H290.933z"/>
	<path fill="#FFFFFF" d="M407.912,62.301v335.01h82.216v30.266H380.663V62.301H407.912z"/>
	<path fill="#FFFFFF" d="M668.178,62.301l-82.216,365.275h-27.249L640.93,62.301H668.178z"/>
	<path fill="#FFFFFF" d="M740.994,62.301l24.899,258.824l24.431-258.824h30.067l24.899,258.824l24.431-258.824h30.067
		l-40.873,365.275h-27.249l-26.31-231.167l-25.839,231.167H751.8L710.927,62.301H740.994z"/>
	<path fill="#FFFFFF" d="M939.721,62.301v365.275h-27.249V62.301H939.721z"/>
	<path fill="#FFFFFF" d="M997.975,62.301l39.934,271.348V62.301h27.248v365.275h-42.282L982.94,155.707v271.869h-27.249V62.301
		H997.975z"/>
	<path fill="#FFFFFF" d="M1184.483,92.566h-40.873v335.01h-27.719V92.566h-40.873V62.301h109.465V92.566z"/>
	<path fill="#FFFFFF" d="M1303.81,92.566h-82.216v137.239h82.216v30.266h-82.216v137.239h82.216v30.266h-109.465V62.301h109.465
		V92.566z"/>
	<path fill="#FFFFFF" d="M1422.666,222.5c0,6.262-1.879,11.48-5.638,15.655c-0.631,0.701-1.101,1.133-1.409,1.305
		c-0.315,0.179-0.631,0.611-0.939,1.305c-4.074,2.788-7.986,4.174-11.745,4.174c4.383,0,8.295,1.395,11.745,4.175l2.349,2.609
		c3.759,4.175,5.638,9.393,5.638,15.655v160.199h-27.248V290.859c0-7.999-2.665-15.304-7.987-21.917
		c-5.329-5.911-11.745-8.871-19.262-8.871h-27.719v167.505h-27.249V62.301h68.592c11.275,0,20.98,4.525,29.128,13.567
		c7.825,8.7,11.745,19.487,11.745,32.353V222.5z M1340.45,92.566v137.239h27.719c7.517,0,13.933-2.952,19.262-8.871
		c5.322-6.604,7.987-13.738,7.987-21.395v-76.186c0-7.999-2.665-15.304-7.987-21.917c-5.329-5.911-11.745-8.871-19.262-8.871
		H1340.45z"/>
</g>
<line stroke="#FFFFFF" stroke-width="4" stroke-miterlimit="10" x1="13.69" y1="22.421" x2="1439.184" y2="22.421"/>
<line stroke="#FFFFFF" stroke-width="4" stroke-miterlimit="10" x1="13.69" y1="465.938" x2="1439.184" y2="465.938"/>
<g>
	<path fill="#FFFFFF" d="M498.451,614.833c5.07-14.806,18.457-38.738,25.961-49.285c1.825-2.434,3.245-3.042,4.868-1.217
		c3.042,3.245,4.665,11.966-0.203,22.107c-4.259,8.924-12.777,22.716-17.037,32.856c-4.868,11.764-4.462,19.674,2.028,19.268
		c9.126-0.405,20.282-13.791,26.366-27.786c1.014-1.825,2.434-1.622,3.245,0c1.623,3.245,1.014,7.505-1.419,12.575
		c-6.085,12.574-18.862,21.093-30.22,21.093C496.625,644.444,492.771,631.464,498.451,614.833z M543.679,561.896
		c-2.636,2.84-8.315,2.231-11.358-3.042c-3.245-5.476-2.231-11.561,1.014-15.009c3.245-3.447,9.127-1.014,11.764,4.462
		C547.736,553.581,546.316,559.058,543.679,561.896z"/>
	<path fill="#FFFFFF" d="M568.423,573.255c1.014-7.91,3.042-11.764,7.301-15.617c4.462-4.057,9.127-4.867,10.953-3.042
		c2.028,2.028,1.014,4.259-1.623,8.924c-0.811,1.217-1.419,2.434-2.231,3.854c-1.419,18.659,2.434,34.479,1.826,48.474
		c-0.406,7.91-1.826,16.429-9.127,21.297c13.589-5.071,22.107-17.24,27.178-28.192c1.014-2.231,3.042-1.623,3.854,0
		c0.812,1.825,0.608,7.099-2.839,13.386c-7.707,13.995-21.499,21.702-35.899,22.311c-11.764,0.405-23.122-2.637-30.018-15.212
		c-4.868-9.127-4.259-22.513,2.637-28.191c2.434-2.028,4.057-1.217,4.259,2.028c0.203,1.622,0.203,3.245,0.406,4.867
		C553.414,596.782,562.541,583.599,568.423,573.255z M546.924,619.092c3.042,11.764,8.924,20.079,15.617,18.052
		c9.33-2.84,6.287-34.683,5.476-50.908C562.135,596.984,554.631,608.14,546.924,619.092z"/>
	<path fill="#FFFFFF" d="M693.964,644.647c-17.037,0-21.296-12.372-15.211-30.018c6.693-19.673,24.338-40.767,21.093-42.592
		c-2.839-1.623-24.947,12.169-36.71,31.437c-7.301,11.967-14.806,26.164-19.673,38.536c-0.812,1.825-2.231,2.231-3.448,0.812
		c-3.245-3.651-5.07-9.33-0.811-21.499c7.099-20.282,49.285-91.675,65.713-112.159c1.826-2.434,3.854-2.231,4.868,0.202
		c2.637,5.882,2.028,16.023-5.679,28.801c-4.868,8.113-15.617,24.541-24.338,38.13c8.315-8.112,18.862-14.806,24.338-14.197
		c6.896,0.812,13.183,10.952,7.91,21.296c-4.462,8.925-14.197,23.73-18.862,34.277c-5.071,11.763-4.057,21.296,3.448,20.89
		c8.315-0.405,19.471-15.008,25.758-27.988c0.811-1.826,2.839-1.826,3.65-0.203c1.014,2.23,1.014,6.49-2.028,12.574
		C718.302,634.507,705.93,644.647,693.964,644.647z"/>
	<path fill="#FFFFFF" d="M826.406,644.444c-15.414-0.811-21.499-14.603-16.428-31.031c4.259-13.589,16.428-28.598,25.149-38.333
		c-8.924,5.679-18.051,7.707-24.339,7.707c-16.834,35.291-38.738,60.847-62.874,61.252c-25.758,0.405-34.479-24.744-21.296-50.705
		c12.778-25.149,33.466-36.508,43.606-30.626c5.07,3.043,8.721,5.882,11.966,10.344c3.448,4.868,1.42,16.834-6.692,27.178
		c-9.533,12.372-23.121,17.443-37.319,6.085c-6.49,18.457-1.419,31.64,8.925,32.046c22.31,1.014,44.62-31.032,55.775-56.79
		c-15.617-6.49,4.259-33.465,12.777-33.871c6.287-0.202,4.259,12.17-0.812,25.353c7.099-1.014,14.197-4.259,22.107-9.532
		c2.434-1.623,4.26-2.637,5.679-0.608c4.057,4.462,9.127,14.197,3.043,20.891c-9.533,10.546-19.877,24.338-23.324,35.29
		c-3.448,11.155-1.015,19.269,5.07,19.471c8.519,0.406,18.862-12.98,25.353-27.988c0.811-1.623,2.23-2.028,3.042-0.203
		c1.014,2.23,1.42,7.504-1.014,13.184C849.73,635.724,837.562,645.053,826.406,644.444z M763.938,591.914
		c6.49-8.315,10.749-18.862,8.112-21.093c-4.462-3.854-21.093,8.924-30.423,27.583c-0.608,1.015-1.014,2.434-1.623,3.448
		C749.943,607.938,757.854,599.621,763.938,591.914z"/>
	<path fill="#FFFFFF" d="M878.125,638.766c16.834,0.812,31.64-15.414,40.361-28.801c1.014-1.622,2.637-1.622,3.448,0.203
		c0.811,1.623,0.202,7.302-3.448,12.575c-8.519,12.372-24.136,21.701-39.753,21.904c-25.758,0.405-34.682-24.947-21.499-51.11
		c13.184-26.164,33.871-36.711,44.013-30.829c5.07,3.043,8.721,6.085,11.966,10.547c3.65,4.868,2.028,17.239-6.49,27.583
		c-9.938,12.17-23.527,17.443-37.725,5.882C862.508,625.38,867.376,638.157,878.125,638.766z M894.959,592.117
		c6.49-8.519,10.952-19.065,8.113-21.296c-4.26-3.448-21.094,8.721-30.626,27.989c-0.608,1.217-1.217,2.434-1.623,3.447
		C880.762,608.546,889.077,599.824,894.959,592.117z"/>
	<path fill="#FFFFFF" d="M940.39,643.836c-2.434,3.043-8.315,1.825-11.155-2.839c-3.245-5.273-2.23-11.358,1.015-14.807
		c3.042-3.245,8.924-1.014,11.561,4.665C944.041,635.521,942.621,640.997,940.39,643.836z M992.515,517.074
		c2.637,5.679,2.231,15.617-6.085,30.625c-11.154,20.079-28.191,51.922-38.535,74.436c-1.015,2.028-1.826,2.434-3.448,0.811
		c-3.042-3.245-5.07-9.938-0.608-22.107c8.112-21.701,28.395-61.859,43.606-84.17C989.066,514.234,991.298,514.234,992.515,517.074z
		"/>
</g>
</svg>
