<?xml version="1.0" encoding="utf-8"?>
<!-- Generator: Adobe Illustrator 16.2.1, SVG Export Plug-In . SVG Version: 6.00 Build 0)  -->
<!DOCTYPE svg PUBLIC "-//W3C//DTD SVG 1.1//EN" "http://www.w3.org/Graphics/SVG/1.1/DTD/svg11.dtd">
<svg version="1.1" id="Layer_1" xmlns="http://www.w3.org/2000/svg" xmlns:xlink="http://www.w3.org/1999/xlink" x="0px" y="0px"
	 width="1446.429px" height="657.143px" viewBox="0 0 1446.429 657.143" enable-background="new 0 0 1446.429 657.143"
	 xml:space="preserve">
<path display="none" fill="none" stroke="#000000" d="M104.441-304.929"/>
<rect x="-383.072" y="-722.784" display="none" width="2237.5" height="2203.573"/>
<g>
	<path fill="#FFFFFF" d="M139.666,81.853H57.45v137.239h82.216v30.266H57.45v167.505H30.201V51.587h109.465V81.853z"/>
	<path fill="#FFFFFF" d="M211.543,51.587l40.873,365.275h-30.067l-8.457-91.319h-31.947l-8.926,91.319h-30.068l40.873-365.275
		H211.543z M211.073,295.278l-13.155-138.805l-13.154,138.805H211.073z"/>
	<path fill="#FFFFFF" d="M290.934,51.587v335.01h82.216v30.266H263.685V51.587H290.934z"/>
	<path fill="#FFFFFF" d="M407.912,51.587v335.01h82.216v30.266H380.664V51.587H407.912z"/>
	<path fill="#FFFFFF" d="M668.178,51.587l-82.216,365.275h-27.249L640.93,51.587H668.178z"/>
	<path fill="#FFFFFF" d="M740.996,51.587l24.899,258.824l24.431-258.824h30.067l24.899,258.824l24.431-258.824h30.067
		l-40.873,365.275h-27.249l-26.31-231.167L779.52,416.863h-27.719L710.928,51.587H740.996z"/>
	<path fill="#FFFFFF" d="M939.721,51.587v365.275h-27.249V51.587H939.721z"/>
	<path fill="#FFFFFF" d="M997.976,51.587l39.934,271.348V51.587h27.248v365.275h-42.282l-39.934-271.869v271.869h-27.249V51.587
		H997.976z"/>
	<path fill="#FFFFFF" d="M1184.485,81.853h-40.873v335.01h-27.719V81.853h-40.873V51.587h109.465V81.853z"/>
	<path fill="#FFFFFF" d="M1303.81,81.853h-82.216v137.239h82.216v30.266h-82.216v137.239h82.216v30.266h-109.465V51.587h109.465
		V81.853z"/>
	<path fill="#FFFFFF" d="M1422.667,211.787c0,6.262-1.879,11.48-5.638,15.655c-0.631,0.701-1.101,1.133-1.409,1.305
		c-0.315,0.179-0.631,0.611-0.939,1.305c-4.074,2.788-7.986,4.174-11.745,4.174c4.383,0,8.295,1.395,11.745,4.175l2.349,2.609
		c3.759,4.175,5.638,9.393,5.638,15.655v160.199h-27.248V280.146c0-7.999-2.665-15.304-7.987-21.917
		c-5.329-5.911-11.745-8.871-19.262-8.871h-27.719v167.505h-27.249V51.587h68.592c11.275,0,20.98,4.525,29.128,13.567
		c7.825,8.7,11.745,19.487,11.745,32.353V211.787z M1340.451,81.853v137.239h27.719c7.517,0,13.933-2.952,19.262-8.871
		c5.322-6.604,7.987-13.738,7.987-21.395v-76.186c0-7.999-2.665-15.304-7.987-21.917c-5.329-5.911-11.745-8.871-19.262-8.871
		H1340.451z"/>
</g>
<line stroke="#FFFFFF" stroke-width="4" stroke-miterlimit="10" x1="13.691" y1="11.708" x2="1439.184" y2="11.708"/>
<line stroke="#FFFFFF" stroke-width="4" stroke-miterlimit="10" x1="13.691" y1="455.224" x2="1439.184" y2="455.224"/>
<g>
	<path fill="#FFFFFF" d="M531.105,529.279c6.084-5.882,13.386-12.98,19.471-19.471c1.825-1.622,3.245-1.825,5.273,0
		c5.882,5.273,6.287,12.98-1.42,27.584c-11.764,22.513-34.276,60.034-50.299,98.367c-0.811,2.028-2.231,2.434-3.651,0.812
		c-3.245-3.65-4.867-9.938-1.014-22.513c4.056-12.778,23.729-52.937,38.941-80.52C528.063,534.147,529.28,531.104,531.105,529.279z"
		/>
	<path fill="#FFFFFF" d="M575.318,529.279c6.084-5.882,13.386-12.98,19.471-19.471c1.825-1.622,3.245-1.825,5.273,0
		c5.882,5.273,6.287,12.98-1.42,27.584c-11.764,22.513-34.276,60.034-50.299,98.367c-0.811,2.028-2.231,2.434-3.651,0.812
		c-3.245-3.65-4.867-9.938-1.014-22.513c4.056-12.778,23.729-52.937,38.941-80.52C572.276,534.147,573.493,531.104,575.318,529.279z
		"/>
	<path fill="#FFFFFF" d="M587.485,614.869c4.056,1.42,5.273,6.693,3.042,12.17c-2.231,5.273-7.504,8.518-11.561,7.099
		c-4.056-1.42-5.273-7.302-3.042-12.17C578.358,616.492,583.428,613.45,587.485,614.869z"/>
	<path fill="#FFFFFF" d="M653.603,615.275c9.938-0.203,15.82,3.447,18.051,9.735c0.608,1.825,0.608,3.042-2.028,3.042
		c-11.764-0.405-38.333,4.462-50.096,7.91c-5.273,1.622-7.91,1.014-10.141-1.42c-2.434-2.637-4.057-5.679-5.071-8.519
		c-1.623-4.057-1.014-5.476,3.245-8.112c54.356-32.451,102.221-83.359,88.227-98.977c-9.33-10.344-26.164,11.561-32.856,21.702
		c-6.288,9.532-11.358,13.994-20.282,13.589c-2.637-0.203-2.839-0.812-2.028-3.245c3.448-9.735,15.82-31.438,31.843-39.55
		c9.533-4.868,21.499-4.462,29.409,3.447c7.504,7.505,10.75,18.254,2.231,35.494c-7.91,15.819-38.333,48.677-78.085,69.77
		C636.161,617.1,646.504,615.477,653.603,615.275z"/>
	<path fill="#FFFFFF" d="M752.783,566.8c3.448,0.812,6.896,2.028,9.33,4.057c10.344,8.722,7.504,26.164-7.504,44.62
		c-17.24,21.094-41.578,21.499-54.559,12.98c-13.995-9.126-13.386-24.135-10.344-31.437c3.448-8.519,10.547-13.184,16.631-13.184
		c2.028,0,2.637,1.217,1.623,2.84c-10.141,16.226-10.344,30.626-3.042,35.29c10.141,6.288,26.975-1.825,37.928-15.616
		c9.735-12.17,15.82-26.57,9.33-31.032c-8.316-5.679-21.297,6.693-31.843-6.084c-1.217-1.42-0.811-3.043,1.825-3.854
		c43.201-12.778,62.063-40.768,53.342-49.894c-7.505-7.91-19.877,3.65-29.409,15.616c-6.49,8.113-13.589,12.98-21.905,11.358
		c-2.637-0.405-3.042-1.623-2.028-3.65c6.085-12.17,19.674-26.367,29.612-31.234c9.938-4.868,22.919-3.651,29.814,3.447
		c8.722,8.925,9.938,20.688-1.217,35.494C775.296,553.211,764.953,561.73,752.783,566.8z"/>
	<path fill="#FFFFFF" d="M781.178,614.869c4.057,1.42,5.273,6.693,3.042,12.17c-2.23,5.273-7.504,8.518-11.561,7.099
		c-4.057-1.42-5.273-7.302-3.042-12.17C772.051,616.492,777.122,613.45,781.178,614.869z"/>
	<path fill="#FFFFFF" d="M835.736,529.279c6.085-5.882,13.386-12.98,19.471-19.471c1.825-1.622,3.245-1.825,5.273,0
		c5.882,5.273,6.287,12.98-1.42,27.584c-11.764,22.513-34.276,60.034-50.299,98.367c-0.812,2.028-2.231,2.434-3.651,0.812
		c-3.245-3.65-4.867-9.938-1.014-22.513c4.057-12.778,23.729-52.937,38.941-80.52C832.694,534.147,833.911,531.104,835.736,529.279z
		"/>
	<path fill="#FFFFFF" d="M909.156,523.6c-1.218,0.203-2.231,0.203-3.245,0.203c-6.693,9.938-13.387,20.484-20.079,31.031
		c9.735-3.854,21.093-1.825,26.975,2.637c10.141,7.707,16.226,23.121-0.405,50.705c-15.009,24.946-39.55,29.408-54.965,21.296
		c-14.197-7.505-14.603-22.716-10.952-32.451c3.448-9.33,10.75-12.777,16.632-13.184c1.622-0.203,2.23,1.217,1.217,2.84
		c-9.735,15.009-10.142,31.843-2.231,36.508c10.142,6.084,28.598-7.1,38.13-23.527c9.938-17.24,11.155-33.668,4.463-37.319
		c-7.1-3.854-20.08,2.028-28.801,13.792c-1.623,2.028-2.637,1.825-4.057,0.203c-3.245-3.651-6.084-10.75-0.608-22.311
		c4.665-9.735,11.764-22.107,20.282-35.493c-1.825-1.825-2.84-4.057-3.448-6.085c-0.608-1.825,0.405-2.637,2.434-2.637
		c18.862,0.608,38.131-5.273,48.677-5.476c8.519-0.203,13.792,4.056,16.226,10.952c0.608,1.825,0.203,2.637-2.028,2.637
		C935.725,517.921,921.933,521.978,909.156,523.6z"/>
</g>
<g>
	<g>
		<path fill="#FFFFFF" d="M-484.789-861.054c-1.238,5.504-2.801,10.843-4.205,15.75c-0.366,1.279-0.762,2.576-1.251,3.768
			c-0.492,1.196-0.953,2.473-1.45,3.661c-0.262,0.628-0.603,1.311-0.933,2.014c-0.331,0.706-0.51,1.376-0.604,1.923
			c-0.078,0.458-0.052,1.075,0.149,1.798c0.202,0.725,0.363,1.294,0.478,1.707c0.433,1.552,1.24,3.921,2.416,7.105
			c1.176,3.183,2.574,6.336,4.189,9.453c1.616,3.119,3.434,5.736,5.451,7.854c2.016,2.117,4.082,2.888,6.211,2.309
			c2.446-0.666,4.728-2.252,6.858-4.767c2.128-2.512,4.072-5.332,5.831-8.458c1.759-3.125,3.281-6.321,4.568-9.592
			c1.285-3.269,2.333-6.016,3.005-8.17c0.256-0.819,0.646-1.77,1.195-2.796c0.548-1.024,1.256-1.647,2.127-1.867
			c0.652-0.164,1.254-0.065,1.805,0.295c0.55,0.359,0.906,0.852,1.062,1.478c0.287,1.148,0.289,2.309,0.009,3.485
			c-0.282,1.179-0.623,2.376-1,3.574c-0.897,2.857-2.149,6.276-3.781,10.185c-1.632,3.91-3.563,7.709-5.789,11.397
			c-2.228,3.691-4.711,6.984-7.456,9.886c-2.747,2.903-5.697,4.788-8.869,5.657c-2.75,0.754-5.381,0.591-7.904-0.488
			c-2.524-1.08-4.874-2.735-7.052-4.965c-2.177-2.231-4.22-4.859-6.123-7.893c-1.902-3.031-3.595-6.122-5.079-9.272
			c-1.483-3.148-2.759-6.167-3.819-9.046c-1.061-2.879-1.873-5.299-2.437-7.261c-1.454-5.057-2.727-10.198-3.81-15.417
			s-2.036-15.706-2.099-15.739c-0.15-0.078-2.133,1.112-3.346,1.462c-2.649,0.763-4.332-0.089-5.051-2.564
			c-0.599-2.062-0.022-3.686,1.741-4.865c1.761-1.179,4.821-2.076,5.267-2.684c0.78-1.064,0.308-7.151,0.657-12.329
			c0.349-5.176,1.12-10.414,2.322-15.711c1.2-5.294,2.972-10.047,5.31-14.249c2.337-4.2,5.519-6.841,9.521-7.906
			c1.827-0.486,3.395-0.344,4.695,0.422c1.302,0.767,2.401,1.813,3.295,3.132c0.895,1.322,1.609,2.774,2.143,4.353
			c0.535,1.582,0.952,2.944,1.25,4.086c1.06,4.053,1.82,8.242,2.29,12.557c0.47,4.318,0.248,12.76,0.419,12.883
			c0.262,0.189,3.677-1.465,5.5-2.272c1.82-0.807,3.681-1.454,5.587-1.943c1.566-0.402,2.526,0.077,2.871,1.428
			c0.213,0.834,0.168,1.481-0.129,1.944c-0.299,0.466-0.73,1.059-1.292,1.579c-0.353,0.327-1.158,0.824-2.291,1.504
			c-1.135,0.683-2.38,1.392-3.731,2.132c-1.354,0.742-2.659,1.444-3.913,2.107s-2.671,1.164-2.839,1.417
			C-484.119-875.048-483.55-866.557-484.789-861.054z M-499.962-855.227c0.895,4.265,2.587,12.744,2.587,12.744
			c0.09,0.01,1.613-4.019,2.46-6.705c0.847-2.685,1.609-5.486,2.289-8.403c0.679-2.914,1.242-5.739,1.686-8.476
			c0.443-2.734,0.764-7.117,0.743-7.13c-0.252-0.16-3.805,1.783-5.759,2.485c-1.953,0.702-5.074,1.771-5.537,2.615
			C-502.519-866.226-500.857-859.492-499.962-855.227z M-499.586-908.625c-1.158,3.374-2.009,7.167-2.552,11.378
			c-0.544,4.215-0.843,8.279-0.906,12.194c-0.063,3.918,0.07,8.211,0.222,8.297c0.407,0.231,4.361-1.789,6.659-2.583
			c2.298-0.794,5.943-1.872,6.584-2.867c1.201-1.863,0.225-9.009-0.173-14.128c-0.398-5.116-1.142-9.753-2.244-13.906
			c-0.055-0.207-0.151-0.571-0.289-1.092c-0.138-0.518-0.334-1.023-0.585-1.512c-0.25-0.487-0.546-0.912-0.883-1.265
			s-0.736-0.472-1.189-0.352C-496.878-913.944-498.43-911.996-499.586-908.625z"/>
		<path fill="#FFFFFF" d="M-438.554-825.298c0.439,1.55,1.04,3.063,1.8,4.535c0.76,1.471,1.658,2.691,2.687,3.655
			c1.029,0.964,2.239,1.277,3.631,0.939c2.14-0.519,4.234-2.044,6.297-4.579c2.061-2.532,3.995-5.416,5.8-8.648
			c1.805-3.233,3.389-6.493,4.75-9.778c1.36-3.285,2.365-5.972,3.112-7.812c0.341-0.839,0.818-1.835,1.316-2.938
			c0.498-1.101,1.294-1.777,2.388-2.021c1.091-0.243,1.803-0.013,2.129,0.683c0.327,0.699,0.583,1.467,0.768,2.305
			c0.116,0.526,0.091,1.192-0.073,1.997c-0.165,0.807-0.403,1.658-0.717,2.553c-0.315,0.895-0.642,1.739-0.977,2.528
			c-0.336,0.791-0.631,1.439-0.851,1.926c-1.074,2.378-2.44,5.365-4.157,8.785c-1.719,3.423-3.696,6.772-5.929,10.048
			c-2.235,3.279-4.626,6.188-7.178,8.728c-2.554,2.541-5.259,4.165-8.133,4.868c-3.195,0.782-5.96,0.445-8.306-1.015
			c-2.346-1.461-4.405-3.438-6.171-5.925c-1.766-2.487-3.204-5.225-4.307-8.215c-1.103-2.987-1.948-5.628-2.531-7.919
			c-0.741-2.913-1.22-6.258-1.424-10.028c-0.204-3.77-0.243-7.157-0.017-10.05c0.236-3.027,1.022-5.766,2.246-8.122
			c1.222-2.353,3.6-3.968,7.128-4.831c2.534-0.62,4.082,0.224,4.638,2.519c0.253,1.044,0.357,2.32,0.314,3.82
			c-0.043,1.501-0.154,3.079-0.333,4.723c-0.18,1.647-0.357,3.294-0.533,4.939c-0.177,1.648-0.323,3.121-0.33,4.311
			c-0.026,4.581,0.777,9.488,1.958,14.285C-439.329-828.093-438.993-826.848-438.554-825.298z M-442.392-887.78
			c1.349,0.946,2.209,2.205,2.583,3.772c0.499,2.091,0.171,4.183-0.971,6.278c-1.143,2.096-2.821,3.413-5.038,3.952
			c-1.775,0.432-3.306,0.171-4.6-0.782c-1.292-0.952-2.135-2.211-2.521-3.776c-0.489-1.979-0.202-4.042,0.87-6.187
			c1.07-2.142,2.726-3.488,4.965-4.03C-445.315-888.986-443.74-888.726-442.392-887.78z"/>
		<path fill="#FFFFFF" d="M-363.121-830.357c-1.15-1.85-2.255-4.289-3.309-7.309c-1.053-3.018-2.061-6.351-3.018-9.993
			c-0.957-3.64-1.786-7.202-2.484-10.677s-1.31-6.528-1.838-9.161c-0.55-2.737-0.93-4.632-1.142-5.686
			c-0.105-0.526-0.299-1.2-0.579-2.021c-0.279-0.818-0.864-1.141-1.75-0.962c-1.109,0.224-2.438,1.506-3.972,3.848
			c-1.537,2.345-3.121,5.276-4.738,8.794c-1.619,3.521-3.213,7.37-4.778,11.546c-1.566,4.179-3.001,8.223-4.309,12.132
			c-1.308,3.911-2.413,7.4-3.319,10.458c-0.908,3.062-1.468,5.308-1.742,6.657c-0.255,1.258-0.764,2.511-1.45,3.709
			c-0.687,1.199-1.779,1.968-3.276,2.307c-1.07,0.243-1.951,0.083-2.64-0.473c-0.69-0.558-1.144-1.311-1.359-2.253
			c-0.359-1.571-0.68-4.083-0.96-7.546c-0.28-3.461-0.552-7.395-0.809-11.796c-0.257-4.4-0.417-9.018-0.471-13.852
			c-0.055-4.831-0.047-9.428,0.02-13.792c0.068-4.361,0.253-8.228,0.556-11.595s0.633-5.791,1.045-7.16
			c0.702-2.334,2.318-4.358,4.666-5.965c2.345-1.605,4.7-2.66,7.053-3.158c1.231-0.261,2.203-0.107,2.905,0.457
			c0.703,0.565,1.177,1.427,1.419,2.583c0.221,1.052,0.261,2.362,0.125,3.925c-0.137,1.566-0.38,3.183-0.726,4.846
			c-0.346,1.665-0.696,3.303-1.049,4.915c-0.353,1.614-0.637,2.999-0.858,4.136c-0.6,3.087-0.974,6.252-1.088,9.461
			c-0.114,3.212-0.004,9.561-0.004,9.561c0.051,0.01,1.973-4.654,3.412-8.148c1.438-3.491,3.095-6.972,4.969-10.436
			c1.873-3.462,3.928-6.549,6.157-9.251c2.228-2.701,4.464-4.276,6.696-4.722c1.561-0.312,2.883-0.081,3.962,0.692
			c1.078,0.771,2.003,1.796,2.771,3.066c0.77,1.273,1.381,2.632,1.836,4.074c0.455,1.445,0.785,2.694,0.99,3.746
			c0.597,3.059,1.138,6.126,1.625,9.203c0.487,3.079,1.032,6.148,1.629,9.204c0.309,1.582,0.638,3.268,0.988,5.06
			c0.33,1.688,1.146,3.405,1.611,4.775c0.03,0.089,0.117,0.306,0.287,0.6c0.169,0.294,0.362,0.422,0.582,0.38
			c0.326-0.063,0.658-0.54,0.995-1.425c0.336-0.886,0.595-1.512,0.74-1.866c1.404-3.417,2.865-7.032,4.543-10.465
			c1.678-3.432,3.328-6.913,4.979-10.357c0.975-2.034,2.149-4.435,3.479-7.189c1.328-2.752,2.826-5.426,4.489-8.015
			c1.662-2.586,3.557-4.886,5.684-6.892c2.125-2.005,4.479-3.229,7.056-3.667c1.79-0.304,3.433-0.145,4.917,0.479
			c1.484,0.624,2.751,1.502,3.799,2.636c1.048,1.133,1.893,2.439,2.534,3.91c0.642,1.472,1.083,2.952,1.326,4.436
			c1.006,6.149,1.618,12.336,1.85,18.554c0.232,6.222,0.86,12.405,1.874,18.55c0.123,0.742,0.294,1.615,0.515,2.611
			c0.221,0.998,0.537,1.899,0.946,2.701c0.41,0.804,0.967,1.474,1.666,2.012c0.697,0.537,1.587,0.719,2.67,0.543
			c1.838-0.298,3.804-1.347,5.909-3.148c2.103-1.8,4.143-3.887,6.116-6.255c1.973-2.367,3.781-4.789,5.42-7.261
			c1.639-2.471,2.953-4.49,3.804-6.021c0.444-0.8,1.021-1.804,1.754-2.944c0.73-1.137,1.648-1.787,2.749-1.945
			c0.99-0.143,1.675,0.143,2.054,0.845c0.38,0.704,0.627,1.432,0.733,2.175c0.076,0.533-0.04,1.118-0.339,1.755
			c-0.302,0.641-0.584,1.198-0.851,1.669c-1.338,2.36-3.136,5.174-5.382,8.435c-2.247,3.263-4.772,6.44-7.569,9.529
			c-2.799,3.092-5.696,5.799-8.697,8.125c-3.002,2.327-5.896,3.722-8.692,4.183c-2.69,0.444-4.884,0.049-6.587-1.187
			c-1.705-1.237-3.125-2.903-4.261-4.996c-1.136-2.093-1.998-4.342-2.579-6.75c-0.581-2.406-1.038-4.562-1.365-6.468
			c-0.82-4.764-1.394-9.569-1.717-14.417c-0.323-4.849-0.897-9.708-1.73-14.579c-0.072-0.421-0.201-1.002-0.384-1.732
			c-0.182-0.729-0.416-1.425-0.7-2.086c-0.285-0.659-0.666-1.221-1.146-1.683s-1.055-0.636-1.722-0.521
			c-1.334,0.231-2.836,1.5-4.489,3.808c-1.654,2.31-3.342,5.201-5.053,8.672c-1.713,3.475-3.406,7.304-5.073,11.486
			c-1.668,4.185-3.206,8.216-4.619,12.088c-1.413,3.873-2.634,7.359-3.666,10.453c-1.034,3.098-1.882,5.374-2.469,6.795
			c-0.385,0.931-0.834,1.75-1.376,2.402c-0.543,0.654-1.354,1.086-2.428,1.297C-360.857-827.687-361.97-828.506-363.121-830.357z"/>
		<path fill="#FFFFFF" d="M-231.132-886.92c0.701,6.191,0.027,12.429-1.974,18.713c-2.002,6.288-5.081,11.892-9.062,16.816
			c-2.111,2.611-4.666,5.098-7.679,7.375c-3.013,2.278-6.241,3.648-9.699,4.111c-3.785,0.507-6.959-0.192-9.545-2.108
			c-2.585-1.917-4.708-4.381-6.36-7.398c-1.652-3.018-2.933-6.309-3.838-9.867c-0.905-3.556-1.607-6.708-1.937-9.324
			c-1.615-12.821-2.1-25.771-1.188-38.565c0.9-12.631,2.724-25.902,4.816-38.572c0.672-4.068,1.469-8.222,2.217-12.332
			c0.748-4.107,1.649-8.251,2.816-12.237c0.394-1.343,0.824-2.546,1.226-3.574c0.401-1.027,0.907-1.932,1.52-2.715
			c0.612-0.782,1.387-1.504,2.316-2.166c0.927-0.66,2.056-1.401,3.384-2.216c0.884-0.543,1.838-1.043,2.856-1.494
			s2.057-0.741,3.114-0.87c1.292-0.158,2.278,0.076,2.948,0.697s1.077,1.52,1.218,2.692c0.128,1.067,0.103,2.34-0.075,3.822
			c-0.178,1.481-0.442,2.975-0.793,4.478c-0.351,1.503-0.737,2.959-1.157,4.361c-0.42,1.405-0.804,2.673-1.129,3.791
			c-2.93,10.069-5.346,20.391-7.357,30.73c-2.003,10.299-3.112,20.825-3.481,31.255c-0.184,5.202-0.415,10.462-0.611,15.69
			s0.059,10.397,0.757,15.505c0.16,1.172,0.481,3.105,0.96,5.803c0.479,2.698,1.179,5.37,2.094,8.008s2.058,4.925,3.423,6.854
			c1.365,1.928,3.077,2.758,5.14,2.487c1.41-0.185,2.661-0.754,3.754-1.708c1.091-0.952,2.016-1.939,2.783-2.874
			c1.39-1.693,2.759-3.786,3.95-6.261c1.19-2.474,2.234-5.065,3.13-7.771c0.896-2.704,1.544-5.434,1.942-8.186
			c0.397-2.75,0.471-5.192,0.216-7.327c-0.623-5.225-2.616-8.696-5.99-10.394c-3.375-1.698-7.584-2.232-12.608-1.582
			c-1.005,0.13-1.966-0.286-2.886-1.247s-1.441-1.868-1.553-2.722c-0.21-1.597,0.336-2.833,1.649-3.71
			c1.311-0.874,2.697-1.468,4.138-1.752c1.659-0.328,3.289-0.581,4.862-0.778c1.685-0.21,3.362-0.471,5.034-0.783
			c3.343-0.625,6.65-1.343,9.918-2.154c3.266-0.811,6.579-1.508,9.932-2.095c0.203-0.022,0.305-0.033,0.507-0.056
			c1.002-0.216,1.964-0.024,2.881,0.579c0.918,0.603,1.43,1.384,1.533,2.345s-0.372,1.85-1.417,2.665
			c-1.048,0.817-2.305,1.521-3.769,2.114c-1.465,0.594-2.973,1.088-4.514,1.479c-1.544,0.392-3.469,0.873-3.472,0.883
			C-236.361-897.927-231.652-891.508-231.132-886.92z"/>
		<path fill="#FFFFFF" d="M-202.392-850.024c-2.402-1.003-4.439-2.419-6.111-4.247c-1.671-1.826-2.974-4.013-3.902-6.564
			c-0.927-2.549-1.545-5.265-1.846-8.149c-0.379-3.631-0.121-8.088,0.791-13.364c0.912-5.275,2.467-10.429,4.679-15.453
			c2.212-5.021,5.049-9.373,8.515-13.042c3.463-3.667,7.472-5.701,11.994-6.091c3.052-0.263,5.478,0.456,7.263,2.146
			c1.785,1.689,2.788,3.934,3.012,6.724c0.216,2.685-0.415,5.735-1.879,9.148c-1.466,3.417-3.377,6.764-5.726,10.046
			c-2.35,3.285-4.91,6.24-7.68,8.871c-2.771,2.632-7.042,4.532-7.831,5.599c-0.77,1.041-0.371,4.799-0.174,6.833
			c0.352,3.646,1.451,6.435,3.289,8.37c1.838,1.934,4.657,2.721,8.476,2.377c3.489-0.314,6.702-1.264,9.648-2.86
			c2.944-1.594,5.651-3.539,8.117-5.834c2.466-2.295,4.699-4.861,6.704-7.704c2.002-2.84,3.729-5.698,5.211-8.456
			c0.479-0.892,1.095-1.854,1.803-2.872c0.707-1.017,1.672-1.571,2.894-1.654c0.554-0.038,1.092,0.089,1.613,0.377
			s0.8,0.701,0.835,1.236c0.071,1.073,0.016,1.938-0.162,2.594c-0.179,0.657-0.549,1.445-1.009,2.329
			c-1.9,3.647-4.177,7.445-6.957,10.982c-2.782,3.54-5.874,6.695-9.282,9.471c-3.408,2.776-7.112,5.071-11.118,6.888
			c-4.009,1.817-8.23,2.933-12.679,3.347C-197.162-848.674-199.989-849.021-202.392-850.024z M-193.234-905.562
			c-1.477,2.465-2.802,5.3-3.97,8.499c-1.168,3.202-2.105,6.382-2.815,9.542c-0.71,3.16-1.193,6.869-1.193,6.869
			c0.17,0.092,3.474-2.854,5.418-4.823c1.943-1.968,3.709-4.135,5.295-6.5c1.585-2.364,2.896-4.755,3.929-7.176
			c1.031-2.418,1.458-4.705,1.275-6.857c-0.073-0.861-0.34-1.681-0.802-2.453c-0.463-0.774-1.259-1.113-2.383-1.016
			C-190.169-909.331-191.757-908.025-193.234-905.562z"/>
		<path fill="#FFFFFF" d="M-139.253-895.918c-2.159-1.489-6.404-3.469-6.999-3.131c-0.696,0.396-1.568,4.943-2.461,7.581
			c-0.893,2.639-1.922,5.29-3.082,7.95c-1.159,2.66-2.43,5.223-3.811,7.685c-1.384,2.464-2.943,4.672-4.679,6.627
			c-0.512,0.577-1.133,1.159-1.859,1.75c-0.727,0.592-1.531,0.919-2.41,0.985c-1.424,0.106-2.19-0.533-2.296-1.926
			c-0.049-0.643,0.042-1.271,0.271-1.88c0.229-0.607,0.58-1.204,0.945-1.768c2.91-4.479,5.535-9.559,8.039-14.471
			c2.503-4.91,5.357-12.514,4.233-15.628c-0.515-1.426-2.963-3.863-3.795-6.123c-0.832-2.257-1.333-4.617-1.503-7.083
			c-0.088-1.286-0.006-2.96,0.251-5.023c0.257-2.06,0.746-4.089,1.468-6.075c0.722-1.987,1.663-3.717,2.827-5.193
			c1.162-1.474,2.602-2.267,4.313-2.375c1.254-0.079,2.258,0.371,3.004,1.347c0.747,0.978,1.39,2.124,1.924,3.434
			c0.535,1.312,0.902,2.667,1.098,4.051c0.196,1.386,0.32,2.51,0.371,3.367c0.153,2.573-0.531,6.183-0.046,7.75
			c0.445,1.438,3.364,3.324,5.683,4.428c2.318,1.104,4.613,2.326,6.878,3.658c2.265,1.333,4.233,3.007,5.903,5.021
			c1.669,2.013,2.586,4.793,2.757,8.333c0.088,1.826-0.09,3.936-0.531,6.318c-0.703,3.797-1.293,7.592-1.767,11.379
			c-0.474,3.789-0.608,7.611-0.413,11.473c0.054,1.073,0.257,2.328,0.602,3.762c0.345,1.433,1.278,2.112,2.807,2.038
			c1.853-0.09,3.964-1.104,6.34-3.038c2.375-1.934,4.717-4.181,7.031-6.748c2.312-2.565,4.472-5.146,6.475-7.745
			c2-2.597,3.466-4.726,4.425-6.201c0.495-0.761,1.136-1.621,1.828-2.558c0.689-0.935,1.535-1.42,2.533-1.451
			s1.646,0.302,1.942,0.99c0.297,0.689,0.459,1.464,0.485,2.322c0.019,0.644-0.104,1.241-0.362,1.784
			c-0.26,0.546-0.545,1.101-0.862,1.637c-1.227,2.071-3.145,4.719-5.62,7.917c-2.478,3.202-5.165,6.304-8.057,9.308
			c-2.895,3.004-5.897,5.604-9.012,7.792c-3.114,2.188-5.971,3.351-8.576,3.481c-2.714,0.135-4.873-0.568-6.48-2.113
			c-1.611-1.547-2.861-3.44-3.75-5.683c-0.89-2.244-1.494-4.65-1.804-7.214c-0.31-2.564-0.521-4.81-0.63-6.74
			c-0.17-3.001-0.2-5.96-0.087-8.871c0.112-2.91,0.086-5.867-0.083-8.871C-135.946-892.34-137.096-894.431-139.253-895.918z"/>
		<path fill="#FFFFFF" d="M-24.199-919.536c-2.652,4.968-5.569,9.688-8.218,14.034c-0.691,1.133-1.416,2.276-2.201,3.293
			c-0.789,1.019-1.568,2.122-2.359,3.133c-0.418,0.534-0.924,1.101-1.427,1.689c-0.503,0.59-0.856,1.188-1.092,1.689
			c-0.197,0.42-0.335,1.022-0.335,1.772c0,0.752-0.002,1.344-0.003,1.772c-0.001,1.611,0.138,4.11,0.41,7.493
			c0.272,3.382,0.766,6.796,1.474,10.232c0.709,3.439,1.744,6.449,3.103,9.032c1.358,2.582,3.124,3.881,5.311,3.897
			c2.512,0.018,5.114-0.897,7.819-2.746c2.703-1.846,5.312-4.04,7.827-6.576c2.515-2.536,4.822-5.205,6.925-8.009
			c2.101-2.802,3.837-5.163,5.055-7.057c0.463-0.721,1.09-1.532,1.89-2.373c0.797-0.839,1.64-1.249,2.531-1.226
			c0.667,0.018,1.217,0.274,1.647,0.77c0.43,0.494,0.638,1.065,0.62,1.71c-0.033,1.183-0.343,2.302-0.924,3.359
			c-0.584,1.06-1.231,2.121-1.911,3.173c-1.622,2.51-3.731,5.466-6.334,8.791c-2.605,3.326-5.465,6.466-8.576,9.419
			c-3.114,2.955-6.368,5.458-9.763,7.514c-3.398,2.056-6.714,3.075-9.972,3.058c-2.826-0.015-5.292-0.882-7.41-2.601
			c-2.12-1.72-3.922-3.947-5.403-6.682c-1.481-2.735-2.724-5.816-3.729-9.25c-1.005-3.431-1.795-6.866-2.37-10.299
			c-0.574-3.432-0.984-6.681-1.228-9.739s-0.373-5.609-0.387-7.65c-0.037-5.261,0.121-10.555,0.48-15.874
			c0.359-5.318,2.251-15.675,2.2-15.722c-0.123-0.114-2.331,0.497-3.581,0.506c-2.729,0.02-4.106-1.254-4.132-3.832
			c-0.021-2.147,0.964-3.554,2.958-4.215c1.993-0.66,5.152-0.704,5.737-1.164c1.034-0.814,2.202-6.803,3.917-11.695
			c1.714-4.89,3.847-9.728,6.407-14.505c2.558-4.774,5.517-8.875,8.87-12.292c3.352-3.415,7.094-5.102,11.199-5.05
			c1.874,0.023,3.335,0.583,4.372,1.671c1.038,1.089,1.807,2.394,2.309,3.904c0.501,1.514,0.794,3.103,0.882,4.768
			c0.088,1.667,0.124,3.093,0.104,4.273c-0.071,4.188-0.465,8.427-1.17,12.709c-0.705,4.285-3.177,12.354-3.043,12.521
			c0.201,0.251,3.903-0.421,5.859-0.708c1.954-0.287,3.905-0.41,5.856-0.368c1.604,0.035,2.391,0.755,2.359,2.149
			c-0.02,0.861-0.236,1.472-0.644,1.838c-0.411,0.369-0.98,0.822-1.656,1.172c-0.424,0.219-1.327,0.482-2.59,0.833
			c-1.266,0.351-2.646,0.7-4.134,1.049c-1.491,0.35-2.923,0.674-4.298,0.975s-2.864,0.403-3.092,0.6
			C-19.833-932.833-21.547-924.502-24.199-919.536z M-40.233-918.011c-0.285,4.349-0.935,12.97-0.935,12.97
			c0.083,0.033,2.61-3.438,4.136-5.796c1.524-2.357,2.999-4.847,4.427-7.473c1.426-2.624,2.717-5.193,3.872-7.71
			c1.153-2.514,2.631-6.646,2.614-6.666c-0.199-0.22-4.107,0.691-6.159,0.842c-2.051,0.15-5.317,0.342-5.983,1.027
			C-39.748-929.29-39.948-922.36-40.233-918.011z M-25.617-969.336c-2.006,2.937-3.831,6.362-5.474,10.271
			c-1.645,3.912-3.016,7.748-4.122,11.501c-1.106,3.757-2.125,7.925-2.002,8.048c0.327,0.329,4.636-0.548,7.042-0.693
			c2.405-0.146,6.176-0.206,7.051-0.986c1.653-1.472,2.621-8.618,3.608-13.655c0.987-5.034,1.516-9.7,1.573-13.997
			c0.003-0.214,0.008-0.589,0.016-1.128c0.007-0.536-0.044-1.075-0.153-1.614c-0.108-0.536-0.278-1.026-0.506-1.457
			c-0.227-0.431-0.577-0.651-1.042-0.657C-21.611-973.727-23.612-972.27-25.617-969.336z"/>
		<path fill="#FFFFFF" d="M44.069-909.174c-2.25,2.146-4.694,4.933-7.318,8.357c-2.625,3.426-5.364,7.205-8.207,11.331
			c-2.845,4.128-5.471,8.138-7.879,12.023c-2.41,3.888-4.513,7.389-6.318,10.496c-1.807,3.11-3.067,5.361-3.752,6.729
			c-0.472,0.942-1.018,1.959-1.648,3.011c-0.631,1.053-1.318,2.057-2.053,3c-0.736,0.945-1.6,1.726-2.597,2.343
			c-0.995,0.617-2.091,0.91-3.284,0.879c-1.196-0.031-2.136-0.404-2.825-1.118c-0.691-0.717-1.242-1.561-1.654-2.537
			c-0.412-0.976-0.663-2.031-0.746-3.16c-0.083-1.129-0.114-2.123-0.095-2.984c0.063-2.791,0.342-5.553,0.843-8.28
			c0.501-2.727,0.94-5.498,1.349-8.268c0.755-5.117,1.545-10.224,2.282-15.256c0.736-5.029,1.437-10.137,2.148-15.257
			c0.801-5.763,1.813-12.308,2.978-19.583c1.164-7.272,2.542-14.623,4.142-22.045c1.599-7.42,3.498-14.564,5.702-21.424
			c2.204-6.858,4.843-12.771,7.816-17.707c0.755-1.254,1.656-2.521,2.707-3.77c1.049-1.249,2.218-2.415,3.504-3.493
			c1.286-1.078,2.712-1.934,4.281-2.568c1.565-0.633,3.18-0.912,4.839-0.837c2.012,0.09,3.618,0.705,4.808,1.835
			c1.191,1.131,2.104,2.495,2.735,4.083c0.632,1.591,1.021,3.276,1.168,5.057c0.147,1.78,0.222,3.354,0.125,4.604
			c-0.933,12.043-3.33,23.635-7.537,34.799c-4.108,10.903-9.8,21.932-15.682,32.393c-1.413,2.512-2.958,4.995-4.506,7.41
			c-1.55,2.418-3.071,4.846-4.462,7.261c-0.36,0.625-0.828,2.149-1.409,4.548s-1.169,5.04-1.761,7.923s-1.122,5.635-1.59,8.251
			c-0.469,2.619-1.08,5.528-1.08,5.528c0.015,0.005,2.518-4.731,4.394-7.84c1.874-3.106,3.989-6.421,6.35-9.938
			c2.358-3.514,4.926-6.99,7.704-10.424c2.777-3.433,5.616-6.538,8.509-9.309c2.892-2.769,5.832-4.969,8.807-6.593
			c2.974-1.625,5.77-2.363,8.377-2.218c1.925,0.106,3.486,0.679,4.676,1.716c1.188,1.036,2.107,2.305,2.755,3.795
			c0.647,1.49,1.062,3.079,1.241,4.755c0.18,1.679,0.224,3.27,0.132,4.77c-0.412,6.754-1.356,13.452-2.813,20.086
			c-1.458,6.637-2.377,13.336-2.777,20.091c-0.044,0.751-0.064,1.558-0.06,2.417c0.004,0.861,0.123,1.65,0.354,2.361
			c0.231,0.712,0.636,1.328,1.208,1.847c0.57,0.517,1.4,0.811,2.493,0.878c2.292,0.142,4.776-0.611,7.466-2.265
			c2.688-1.651,5.327-3.622,7.916-5.917c2.586-2.292,5.031-4.7,7.326-7.221c2.292-2.52,4.06-4.631,5.306-6.22
			c0.476-0.606,1.137-1.39,1.939-2.352c0.799-0.959,1.698-1.401,2.696-1.321s1.638,0.455,1.918,1.125
			c0.28,0.669,0.384,1.434,0.314,2.29c-0.044,0.537-0.192,0.982-0.443,1.337c-0.253,0.358-0.505,0.747-0.761,1.15
			c-1.876,2.964-4.388,6.167-7.414,9.595c-3.029,3.43-6.35,6.6-9.959,9.516c-3.613,2.918-7.413,5.294-11.407,7.133
			c-3.997,1.839-7.882,2.65-11.679,2.43c-2.28-0.132-3.942-1.088-4.989-2.865c-1.048-1.778-1.781-3.862-2.202-6.25
			c-0.42-2.386-0.591-4.845-0.514-7.368c0.078-2.521,0.157-4.535,0.236-6.038c0.306-5.792,0.915-11.569,1.834-17.328
			c0.919-5.757,1.817-11.519,2.695-17.279c0.028-0.515,0.043-0.774,0.071-1.289c0.029-0.535,0.015-1.315-0.042-2.341
			c-0.057-1.023-0.537-1.563-1.438-1.611C48.069-912.356,46.317-911.319,44.069-909.174z M33.206-986.447
			c-1.839,3.147-3.65,7.214-5.425,12.195c-1.774,4.984-3.439,10.483-4.991,16.498c-1.553,6.016-2.913,11.826-4.081,17.426
			s-2.138,10.624-2.91,15.055c-0.772,4.434-1.415,9.384-1.415,9.384c0.134,0.046,5.58-9.324,8.53-15.018
			c2.949-5.693,5.679-11.604,8.183-17.734c2.502-6.128,4.655-12.219,6.44-18.267c1.786-6.047,2.809-11.536,3.038-16.472
			c0.015-0.322,0.041-0.912,0.081-1.771c0.04-0.857-0.009-1.719-0.145-2.586c-0.136-0.865-0.308-1.63-0.514-2.283
			c-0.207-0.654-0.605-0.994-1.194-1.021C36.917-991.125,35.044-989.593,33.206-986.447z"/>
		<path fill="#FFFFFF" d="M110.765-891.879c-1.916-1.792-5.825-4.378-6.463-4.131c-0.748,0.289-2.283,4.658-3.556,7.135
			c-1.274,2.478-2.683,4.947-4.223,7.406c-1.541,2.459-3.177,4.806-4.908,7.037c-1.732,2.232-3.603,4.187-5.608,5.863
			c-0.592,0.495-1.293,0.979-2.098,1.456c-0.806,0.478-1.649,0.683-2.528,0.618c-1.424-0.105-2.086-0.853-1.984-2.246
			c0.047-0.643,0.229-1.251,0.546-1.818c0.316-0.566,0.751-1.105,1.196-1.608c3.541-4.002,6.887-8.635,10.09-13.124
			c3.201-4.486,7.15-11.585,6.498-14.831c-0.298-1.486-2.359-4.258-2.848-6.616c-0.489-2.355-0.637-4.765-0.44-7.229
			c0.103-1.285,0.432-2.927,0.991-4.93c0.559-2,1.341-3.935,2.35-5.792c1.008-1.858,2.194-3.429,3.564-4.718
			c1.367-1.286,2.91-1.857,4.62-1.711c1.253,0.107,2.18,0.7,2.773,1.775c0.595,1.077,1.06,2.304,1.395,3.68
			c0.336,1.378,0.499,2.771,0.489,4.169c-0.01,1.401-0.054,2.531-0.13,3.386c-0.229,2.567-1.442,6.038-1.193,7.659
			c0.228,1.487,2.839,3.784,4.971,5.219c2.131,1.435,4.221,2.983,6.266,4.635c2.046,1.653,3.747,3.601,5.103,5.84
			c1.355,2.238,1.852,5.123,1.497,8.649c-0.183,1.818-0.67,3.878-1.459,6.169c-1.258,3.651-2.403,7.317-3.433,10.993
			c-1.029,3.677-1.729,7.437-2.107,11.285c-0.105,1.069-0.091,2.341,0.039,3.81c0.129,1.468,0.954,2.279,2.478,2.431
			c1.848,0.185,4.087-0.506,6.727-2.068c2.638-1.561,5.292-3.436,7.963-5.632c2.669-2.194,5.191-4.428,7.561-6.702
			c2.366-2.272,4.134-4.161,5.302-5.478c0.603-0.68,1.364-1.436,2.188-2.26c0.821-0.822,1.732-1.176,2.725-1.059
			c0.992,0.117,1.587,0.543,1.779,1.267c0.192,0.725,0.238,1.517,0.136,2.369c-0.077,0.64-0.286,1.211-0.623,1.71
			c-0.339,0.501-0.704,1.007-1.098,1.491c-1.521,1.867-3.811,4.2-6.737,6.998c-2.93,2.8-6.05,5.473-9.359,8.014
			c-3.311,2.543-6.672,4.669-10.081,6.372s-6.407,2.431-9.006,2.174c-2.707-0.268-4.741-1.281-6.105-3.047
			c-1.365-1.768-2.324-3.827-2.873-6.176c-0.549-2.351-0.789-4.82-0.716-7.402c0.072-2.582,0.197-4.836,0.374-6.761
			c0.275-2.993,0.683-5.924,1.224-8.785c0.542-2.861,0.954-5.789,1.231-8.785C113.509-887.851,112.678-890.089,110.765-891.879z"/>
		<path fill="#FFFFFF" d="M157.492-845.851c-2.129-1.501-3.81-3.327-5.045-5.475c-1.235-2.146-2.031-4.563-2.383-7.255
			c-0.352-2.689-0.364-5.475-0.03-8.355c0.419-3.626,1.639-7.922,3.677-12.874c2.037-4.95,4.677-9.643,7.929-14.065
			c3.251-4.42,6.968-8.05,11.152-10.878c4.182-2.826,8.543-3.939,13.048-3.335c3.041,0.408,5.256,1.636,6.634,3.674
			c1.377,2.038,1.872,4.447,1.484,7.219c-0.373,2.668-1.655,5.509-3.829,8.521c-2.177,3.016-4.773,5.866-7.782,8.559
			c-3.013,2.695-6.159,5.021-9.438,6.987c-3.28,1.966-7.866,2.893-8.869,3.762c-0.978,0.848-1.407,4.604-1.658,6.632
			c-0.449,3.635,0.019,6.598,1.393,8.885c1.375,2.287,3.959,3.669,7.767,4.164c3.479,0.453,6.827,0.224,10.056-0.693
			c3.226-0.915,6.294-2.225,9.206-3.928c2.911-1.704,5.652-3.723,8.232-6.061c2.577-2.336,4.888-4.75,6.938-7.12
			c0.663-0.766,1.473-1.57,2.387-2.409c0.913-0.838,1.979-1.167,3.193-0.982c0.55,0.084,1.049,0.323,1.496,0.718
			s0.63,0.858,0.548,1.388c-0.164,1.062-0.405,1.895-0.722,2.497c-0.317,0.603-0.853,1.291-1.496,2.053
			c-2.652,3.143-5.707,6.357-9.196,9.205c-3.492,2.849-7.202,5.256-11.139,7.224c-3.938,1.968-8.06,3.402-12.373,4.304
			c-4.315,0.901-8.683,1.071-13.121,0.507C162.304-843.396,159.62-844.35,157.492-845.851z M178.518-898.067
			c-1.98,2.084-3.891,4.561-5.729,7.431c-1.839,2.872-3.446,5.771-4.827,8.702c-1.381,2.93-2.659,6.445-2.659,6.445
			c0.146,0.126,4.012-2.03,6.34-3.529c2.327-1.499,4.527-3.229,6.591-5.192c2.063-1.962,3.865-4.012,5.401-6.151
			c1.534-2.136,2.45-4.274,2.74-6.415c0.116-0.856,0.033-1.715-0.25-2.569c-0.284-0.856-0.99-1.361-2.109-1.511
			C182.333-901.082,180.497-900.149,178.518-898.067z"/>
		<path fill="#FFFFFF" d="M278.476-849.925c-1.173,1.083-2.115,2.052-2.821,2.734c-1.774,1.712-4.209,3.673-6.878,5.896
			c-2.672,2.226-5.492,4.262-8.46,6.112c-2.971,1.852-6.026,3.313-9.164,4.382c-3.14,1.07-6.104,1.36-8.899,0.87
			c-2.691-0.472-4.683-1.771-5.983-3.899c-1.3-2.128-2.165-4.565-2.594-7.306c-0.429-2.739-0.518-5.532-0.265-8.375
			c0.252-2.841,1.023-7.099,1.023-7.099c-0.063-0.035-3.085,3.161-5.167,5.265c-2.083,2.105-4.339,4.104-6.76,5.997
			c-2.423,1.894-4.869,3.461-7.337,4.703c-2.469,1.242-4.781,1.697-6.943,1.365c-1.946-0.299-3.479-1.126-4.603-2.491
			c-1.122-1.363-1.915-2.948-2.368-4.751c-0.453-1.803-0.677-3.683-0.666-5.636c0.01-1.953,0.125-3.672,0.344-5.161
			c0.61-4.144,2.345-8.721,5.232-13.721c2.885-4.997,6.438-9.597,10.669-13.779c4.229-4.182,8.873-7.505,13.917-9.953
			c5.044-2.449,10.05-3.25,14.982-2.41c1.231,0.21,2.373,0.952,3.421,2.221c1.047,1.269,1.47,2.491,1.268,3.654
			c-0.092,0.531-0.33,0.898-0.708,1.103c-0.38,0.206-0.836,0.366-1.295,0.511c-3.228,1.021-6.477,2.46-9.512,3.856
			c-3.04,1.397-5.982,3.142-8.813,5.159c-4.975,3.544-9.195,7.744-12.547,12.6c-3.353,4.857-5.479,10.318-6.411,16.369
			c-0.098,0.637-0.112,1.45-0.041,2.438c0.071,0.987,0.595,1.558,1.572,1.71c1.195,0.186,2.665-0.317,4.415-1.509
			c1.748-1.19,3.615-2.744,5.601-4.653c1.985-1.909,3.996-4.088,6.027-6.531c2.03-2.441,3.977-4.815,5.83-7.119
			c1.853-2.303,3.491-4.452,4.909-6.446c1.416-1.992,2.525-3.477,3.229-4.437c0.758-1.035,1.632-2.036,2.637-2.899
			c1.004-0.862,2.284-1.161,3.841-0.89c0.888,0.154,1.722,0.465,2.499,0.929s1.071,1.225,0.885,2.281
			c-0.206,1.165-0.866,2.629-1.973,4.397c-1.108,1.769-2.028,3.208-2.627,4.283c-1.394,2.499-2.506,5.426-3.43,8.479
			c-0.925,3.056-1.625,5.962-2.101,8.713c-0.147,0.848-0.34,2.123-0.578,3.823c-0.238,1.703-0.345,3.456-0.322,5.258
			c0.023,1.802,0.271,3.428,0.744,4.872c0.473,1.445,1.356,2.281,2.653,2.51c1.945,0.343,4.252-0.117,6.938-1.38
			c2.683-1.261,5.374-2.819,8.072-4.67c2.697-1.849,5.256-3.8,7.675-5.858c2.417-2.057,4.279-3.728,5.53-5.017
			c0.707-0.729,1.477-1.494,2.306-2.263c0.828-0.768,1.845-1.039,3.051-0.804c1.75,0.34,2.43,1.516,2.037,3.517
			C280.331-852.025,279.648-851.008,278.476-849.925z"/>
		<path fill="#FFFFFF" d="M305.204-837.395c-2.876,1.803-5.877,3.448-9.001,4.936c-3.126,1.488-6.237,2.686-9.334,3.59
			c-3.101,0.906-5.828,1.125-8.193,0.656c-1.723-0.341-3.098-1.159-4.13-2.453c-1.032-1.295-1.781-2.782-2.241-4.456
			c-0.46-1.673-0.719-3.396-0.774-5.155c-0.056-1.757,0.048-3.324,0.312-4.696c1.173-6.117,3.719-11.893,7.679-17.306
			c3.958-5.411,8.807-9.74,14.456-12.658c2.14-1.105,4.819-2.011,7.917-2.743c3.098-0.732,5.93-0.827,8.484-0.287
			c3.438,0.726,7.701,5.437,7.701,5.437c0.202-0.032,1.62-6.41,2.953-10.406c1.333-3.996,2.96-8.122,4.887-12.375
			c1.925-4.25,4.053-8.57,6.381-12.951c2.327-4.379,4.833-8.445,7.524-12.193c2.688-3.746,5.457-7.116,8.303-10.105
			s5.714-5.196,8.585-6.629c1.505-0.751,3.217-1.461,5.132-2.117c1.913-0.655,3.739-0.78,5.468-0.371
			c2.075,0.491,3.594,1.517,4.561,3.074c0.965,1.555,1.577,3.309,1.836,5.249c0.26,1.942,0.269,3.907,0.03,5.891
			c-0.239,1.986-0.524,3.658-0.853,5.014c-1.316,5.429-3.809,11.458-7.435,18.095c-3.627,6.641-7.727,13.25-12.284,19.843
			c-4.558,6.596-9.248,12.919-14.062,18.972c-4.817,6.056-10.86,11.729-12.8,15.592c-0.402,0.802-0.635,3.078-1.127,5.774
			c-0.493,2.696-0.834,5.486-1.027,8.357c-0.193,2.874-0.042,5.469,0.452,7.783c0.493,2.316,1.542,3.654,3.152,4.023
			c2.36,0.541,4.955,0.317,7.794-0.674c2.835-0.99,5.627-2.343,8.372-4.064c2.742-1.718,5.366-3.601,7.866-5.647
			c2.498-2.044,4.514-3.86,6.035-5.326c0.727-0.701,1.71-1.573,2.888-2.609c1.178-1.036,2.312-1.418,3.4-1.147
			c0.979,0.244,1.513,0.769,1.602,1.563c0.089,0.795,0.043,1.562-0.139,2.29c-0.288,1.148-0.929,2.204-1.918,3.173
			c-0.992,0.972-1.925,1.845-2.807,2.623c-2.353,2.072-4.992,4.298-7.911,6.679c-2.921,2.383-6.018,4.48-9.284,6.291
			c-3.27,1.812-6.62,3.198-10.058,4.156c-3.437,0.959-6.859,1.052-10.277,0.273c-2.78-0.633-4.908-2.019-6.395-4.165
			c-1.487-2.148-2.606-4.596-3.355-7.345c-0.748-2.747-1.179-5.565-1.287-8.446c-0.108-2.88,0.032-7.579,0.032-7.579
			C312.11-842.081,308.077-839.197,305.204-837.395z M304.458-864.64c-3.997,1.524-7.705,3.667-11.117,6.424
			c-3.414,2.758-6.327,5.93-8.737,9.5c-2.411,3.571-3.93,6.995-4.576,10.26c-0.104,0.528-0.179,1.198-0.228,2.008
			s0.357,1.302,1.223,1.474c1.727,0.343,4.187-0.15,7.385-1.474c3.195-1.322,6.467-2.954,9.815-4.889
			c3.346-1.934,6.459-3.912,9.341-5.933c2.879-2.021,5.46-3.807,5.917-4.827c0.68-1.518,0.66-4.636,1.137-6.84
			c0.477-2.205,1.765-6.306,1.464-6.772C315.474-866.653,308.453-866.163,304.458-864.64z M328.25-861.215
			c3.184-3.91,6.714-8.506,10.606-13.787c3.891-5.278,7.649-10.75,11.272-16.413c3.622-5.661,6.894-11.347,9.799-17.061
			c2.904-5.711,4.944-10.969,6.088-15.777c0.049-0.208,0.123-0.522,0.223-0.941c0.124-0.522,0.191-1.059,0.201-1.607
			c0.01-0.547-0.057-1.036-0.199-1.455c-0.142-0.418-0.445-0.685-0.901-0.793c-0.575-0.136-1.138-0.048-1.693,0.26
			c-0.558,0.311-1.066,0.578-1.46,0.816c-1.832,1.11-3.928,3.354-6.198,6.408c-2.272,3.056-4.568,6.634-6.88,10.729
			c-2.312,4.096-4.593,8.482-6.835,13.146c-2.244,4.667-4.303,9.211-6.18,13.632c-1.877,4.423-3.465,8.496-4.766,12.221
			c-1.302,3.727-2.208,6.744-2.725,9.048C328.46-862.159,328.391-861.844,328.25-861.215z"/>
		<path fill="#FFFFFF" d="M386.872-856.129c-0.502,2.008,1.277,6.773,2.229,10.244c0.952,3.472,1.836,6.959,2.646,10.453
			c0.81,3.495,1.318,6.999,1.529,10.501c0.211,3.504-0.137,6.918-1.034,10.236c-0.562,2.075-1.419,4.067-2.564,5.981
			c-1.147,1.917-4.347,5.004-4.347,5.004c0.044,0.238,4.335,0.416,7.356-0.598c3.02-1.013,6.132-2.329,9.341-3.945
			c3.208-1.617,6.227-3.335,9.058-5.159c2.828-1.822,4.943-3.377,6.317-4.485c0.709-0.572,1.631-1.235,2.667-2.001
			c1.032-0.764,2.09-0.992,3.168-0.681c0.968,0.28,1.525,0.776,1.668,1.489s0.093,1.482-0.146,2.307
			c-0.15,0.518-0.497,1.005-1.036,1.461c-0.542,0.458-0.99,0.99-1.356,1.367c-3.576,3.68-8.635,6.848-12.959,9.529
			c-4.328,2.684-8.765,4.731-13.321,6.147c-4.557,1.417-9.359,2.14-14.414,2.18c-5.056,0.04-10.437-0.681-16.156-2.149
			c-3.074-0.789-6.305-1.94-9.703-3.454c-3.4-1.514-6.05-3.658-7.806-6.41c-0.41-0.642-0.707-1.279-0.899-1.877
			c-0.193-0.601-0.2-1.265-0.023-1.994c0.38-1.566,1.428-2.141,3.137-1.723c0.642,0.157,1.123,0.385,1.446,0.686
			c0.321,0.299,0.726,0.671,1.167,1.116c1.532,1.542,3.151,2.827,4.859,3.696c1.706,0.868,3.623,1.574,5.753,2.115
			c4.256,1.081,7.802,0.64,10.648-1.336c2.846-1.976,4.796-4.933,5.834-8.883c0.627-2.389,0.949-5.026,0.957-7.911
			c0.007-2.882-0.178-5.82-0.557-8.804c-0.379-2.982-0.92-5.927-1.624-8.825c-0.704-2.897-2.308-7.662-2.308-7.662
			c-0.259-0.031-2.841,3.959-4.631,6.22c-1.791,2.263-3.707,4.467-5.742,6.612c-2.037,2.146-4.125,4.173-6.257,6.078
			c-2.136,1.906-4.201,3.443-6.2,4.612c-0.668,0.391-1.422,0.788-2.259,1.19c-0.838,0.403-1.687,0.501-2.55,0.292
			c-1.505-0.364-2.084-1.274-1.732-2.738c0.201-0.834,0.568-1.522,1.096-2.057c0.529-0.535,1.183-1.045,1.828-1.548
			c9.401-7.321,21.989-18.163,24.048-25.754c0.499-1.837-0.107-5.841,0.601-8.653c0.393-1.562,1.129-3.317,2.208-5.261
			c1.078-1.942,2.354-3.725,3.83-5.345c1.476-1.621,3.165-2.91,5.073-3.863c1.904-0.952,3.863-1.169,5.869-0.648
			c1.003,0.26,1.792,0.774,2.366,1.533s0.941,1.636,1.099,2.619c0.158,0.983,0.196,1.967,0.117,2.946s-0.229,1.884-0.448,2.714
			c-0.683,2.598-1.762,5.117-3.228,7.564C390.021-860.552,387.261-857.686,386.872-856.129z"/>
	</g>
</g>
</svg>
